# xmcd
#
# Track frame offsets:
#	150
#	13025
#	28367
#	40620
#	51825
#	61582
#	74462
#	90407
#	100947
#	114690
#	130517
#	140877
#	154995
#	170597
#	186107
#	200605
#	212822
#	229462
#	242175
#	258122
#	273350
#	294137
#	307535
#
# Disc length: 4301 seconds
#
# Revision: 0
# Processed by: cddbd v1.5.2PL0 Copyright (c) Steve Scherf et al.
# Submitted via: EasyCDDAExtractor 16.0.6.1
#
DISCID=4810cb17
DTITLE=Γαβαλάς Πάνος-Κούρτη Ρία   - Τραγουδώντας εποχές 02-Γαβαλάς Πάνος
DYEAR=1989
DGENRE=Λαϊκή
TTITLE0=Το σταυροδρόμι [Χ. Νικολόπουλου-Γ. Βασιλόπουλου-Ε. Ατραΐδη]
TTITLE1=Το χτύπημα [Χ. Νικολόπουλου-Γ. Βασιλόπουλου-Ε. Ατραΐδη]
TTITLE2=Άφησέ με [Χ. Νικολόπουλου-Γ. Βασιλόπουλου-Ε. Ατραΐδη]
TTITLE3=Σούρτα φέρτα [Χ. Νικολόπουλου-Γ. Βασιλόπουλου-Ε. Ατραΐδη]
TTITLE4=Ο σωσίας [Χ. Νικολόπουλου-Γ. Βασιλόπουλου-Ε. Ατραΐδη]
TTITLE5=Υποκρισία [Χ. Νικολόπουλου-Γ. Βασιλόπουλου-Ε. Ατραΐδη]
TTITLE6=Ποιος μπορεί [Χ. Νικολόπουλου-Γ. Βασιλόπουλου-Ε. Ατραΐδη]
TTITLE7=Σήκω πάνω, κάτσε κάτω [Χ. Νικολόπουλου-Γ. Βασιλόπουλου-Ε. Ατραΐδη]
TTITLE8=Απόψε φίλοι μου [Χ. Νικολόπουλου-Γ. Βασιλόπουλου-Ε. Ατραΐδη]
TTITLE9=Πού γυρίζεις [Χ. Νικολόπουλου-Γ. Βασιλόπουλου-Ε. Ατραΐδη]
TTITLE10=Λέγε, λέγε [Χ. Νικολόπουλου-Γ. Βασιλόπουλου-Ε. Ατραΐδη]
TTITLE11=Θα διαδώσω έξυπνα [Χ. Νικολόπουλου-Γ. Βασιλόπουλου-Ε. Ατραΐδη]
TTITLE12=Δεν με κατάλαβες [Χ. Νικολόπουλου-Γ. Βασιλόπουλου-Ε. Ατραΐδη]
TTITLE13=Μιά περιπέτεια [Χ. Νικολόπουλου-Γ. Βασιλόπουλου-Ε. Ατραΐδη]
TTITLE14=Πολύ σ' αγαπώ [Χ. Νικολόπουλου-Γ. Βασιλόπουλου-Ε. Ατραΐδη]
TTITLE15=Μελαχροινάκι [Χ. Νικολόπουλου-Γ. Βασιλόπουλου-Ε. Ατραΐδη]
TTITLE16=Στα μονοπάτια μας [Χ. Νικολόπουλου-Γ. Βασιλόπουλου-Ε. Ατραΐδη]
TTITLE17=Κάνε στοπ [Χ. Νικολόπουλου-Γ. Βασιλόπουλου-Ε. Ατραΐδη]
TTITLE18=Έλα έλα [Χ. Νικολόπουλου-Γ. Βασιλόπουλου-Ε. Ατραΐδη]
TTITLE19=Έκανα λάθος [Π. Γαβαλά]
TTITLE20=Τίποτα τίποτα [Π. Γαβαλά]
TTITLE21=Ένας σταθμός [Χ. Νικολόπουλου-Γ. Βασιλόπουλου-Ε. Ατραΐδη]
TTITLE22=Χαρά σ' εκείνον [Χ. Νικολόπουλου-Γ. Βασιλόπουλου-Ε. Ατραΐδη]
EXTD=
EXTT0=
EXTT1=
EXTT2=
EXTT3=
EXTT4=
EXTT5=
EXTT6=
EXTT7=
EXTT8=
EXTT9=
EXTT10=
EXTT11=
EXTT12=
EXTT13=
EXTT14=
EXTT15=
EXTT16=
EXTT17=
EXTT18=
EXTT19=
EXTT20=
EXTT21=
EXTT22=
PLAYORDER=
